<svg viewBox="25 0 800 300" xmlns="http://www.w3.org/2000/svg">
  <!-- Logo icon -->
  <g transform="translate(50, 50) scale(0.6)">
    <path class="st4" d="M429.8,164.5c0-62.8-50.9-113.8-113.8-113.8c-28.8,0-55,10.7-75,28.3c54.4,48.5,121.5,86.4,187,105.6 C429.2,178,429.8,171.3,429.8,164.5z" fill="#009DE0"/>
    <path class="st4" d="M202.9,176.2c5.9,57.3,54.3,102.1,113.2,102.1c41.5,0,77.7-22.2,97.6-55.3c-1.6,0-3.2,0-4.9,0 C369.9,223,287.3,217.4,202.9,176.2z" fill="#009DE0"/>
    <path class="st3" d="M435.1,195.5c-3-0.8-5.9-1.7-8.9-2.6c0-0.1,0-0.2,0.1-0.2c-11.6-3.4-23.2-7.3-34.9-11.8 c-0.3-0.1-0.6-0.2-0.9-0.4c-3.5-1.4-6.9-2.7-10.4-4.2c-51.7-21.6-102.4-53.4-145.2-91.7c-2.1-1.9-4.2-3.8-6.3-5.8 c-20,18.7-35.4,58.4-36.5,79.9c-0.1,1.1-0.1,2.2,0,3.3c0.6,0.3,1.1,0.6,1.7,0.9l0.2-0.5c2.7,1.5,5.5,2.8,8.2,4.2 c92.3,46.3,183.2,48.8,215.9,47.9c5.8-0.2,9.8-0.4,11.7-0.6l0,0.1c0.1,0,0.2,0,0.3,0c0.2-0.5,0.5-1.2,0.8-1.9 C432.6,208.1,434.8,201,435.1,195.5L435.1,195.5z" fill="#99A2AC"/>
  </g>
  
  <!-- ADVAN text -->
  <g transform="translate(320, -82) scale(0.65)">
    <path class="st3" d="M36.5,393.3l35.8-91.1h21.3l35.6,91.1h-27.8l-5.8-17.8H70.1l-5.7,17.8H36.5z M82.9,328.3L74,358.8h17.4 L82.9,328.3z" fill="#99A2AC"/>
    <path class="st3" d="M159.2,393.3v-91.1H196c7.9,0,14.9,1.2,20.9,3.6c6,2.4,11.1,5.6,15.1,9.8c4.1,4.1,7.1,8.9,9.2,14.4 c2.1,5.5,3.1,11.4,3.1,17.6c0,6.9-1.1,13.2-3.4,18.8c-2.3,5.6-5.6,10.4-9.8,14.4c-4.2,4-9.3,7.1-15.3,9.2 c-5.9,2.2-12.6,3.3-19.8,3.3H159.2z M217.7,347.7c0-3.5-0.5-6.7-1.5-9.6c-1-2.9-2.4-5.4-4.3-7.4c-1.8-2.1-4.1-3.7-6.8-4.8 c-2.7-1.2-5.7-1.7-9-1.7h-10.5v47.5H196c3.4,0,6.5-0.6,9.2-1.8c2.7-1.2,5-2.9,6.8-5c1.8-2.1,3.2-4.7,4.2-7.6 C217.2,354.2,217.7,351.1,217.7,347.7z" fill="#99A2AC"/>
    <path class="st3" d="M298.4,302.2l19.2,59.7l19-59.7H365l-36.1,91.1h-22.4l-36.6-91.1H298.4z" fill="#99A2AC"/>
    <path class="st3" d="M383.2,393.3l35.8-91.1h21.3l35.6,91.1h-27.8l-5.8-17.8h-25.5l-5.7,17.8H383.2z M429.7,328.3l-8.9,30.5 h17.4L429.7,328.3z" fill="#99A2AC"/>
    <path class="st3" d="M531.8,348.5v44.8h-26.3v-91.1H526l38.5,46.3v-46.3h26.3v91.1h-20.9L531.8,348.5z" fill="#99A2AC"/>
  </g>
</svg>